<svg width="24" height="24" viewBox="0 0 24 24" fill="none" xmlns="http://www.w3.org/2000/svg">
<path d="M7.33915 10.0848L11.9999 5.42428L16.6631 10.0873L19.3751 7.37536L11.9999 0L4.6272 7.37289L7.33915 10.0848Z" fill="#F3BA2F"/>
<path d="M5.42394 12.001L2.71204 9.28906L3.59204e-08 12.0011L2.7119 14.713L5.42394 12.001Z" fill="#F3BA2F"/>
<path d="M7.3391 13.9163L11.9999 18.5769L16.6629 13.9141L19.3763 16.6245L19.375 16.626L11.9999 24.0012L4.62696 16.6285L4.62317 16.6247L7.3391 13.9163Z" fill="#F3BA2F"/>
<path d="M21.288 14.712L24 12L21.2881 9.2881L18.5761 12.0001L21.288 14.712Z" fill="#F3BA2F"/>
<path d="M14.7507 11.998H14.7518L11.9999 9.24609L9.96613 11.2798H9.96594L9.73241 11.5135L9.25037 11.9956L9.24658 11.9994L9.25037 12.0033L11.9999 14.7528L14.7518 12.0009L14.7531 11.9994L14.7507 11.998Z" fill="#F3BA2F"/>
</svg>
