<svg width="64" height="16" viewBox="0 0 64 16" fill="none" xmlns="http://www.w3.org/2000/svg">
    <g clip-path="url(#clip0_433_2712)">
        <path
            d="M14.1577 12.3816C13.7765 12.3816 13.453 12.6479 13.3721 13.0185L10.3397 12.8738C10.3513 12.8159 10.357 12.7579 10.357 12.7C10.357 12.5958 10.3397 12.4916 10.3108 12.3874L11.4141 11.7504C11.6855 12.0863 12.1765 12.1557 12.5288 11.901C12.8812 11.6462 12.9736 11.1598 12.7368 10.795C12.5 10.4302 12.0205 10.3144 11.6451 10.5287C11.2697 10.7429 11.1253 11.2177 11.3216 11.6057L10.2531 12.2252C9.99893 11.6867 9.36934 11.4435 8.82061 11.6694C8.27189 11.8952 7.99464 12.5148 8.19103 13.0764L6.20407 13.557C6.19252 13.2849 6.07699 13.0301 5.88638 12.8332L6.2445 12.3353C6.64882 12.4742 7.09358 12.2716 7.25531 11.872C7.41704 11.4725 7.23798 11.015 6.85098 10.8355C6.46399 10.6502 5.99613 10.8066 5.79397 11.183C5.59181 11.5593 5.71888 12.0342 6.08277 12.26L5.75354 12.7174C5.52249 12.5437 5.22792 12.4684 4.93911 12.5032L4.59833 10.5518C5.02575 10.4592 5.35499 10.1233 5.44741 9.70063C5.53982 9.27214 5.37809 8.83207 5.03153 8.5715C4.68497 8.30514 4.21711 8.2704 3.83589 8.47306L2.97526 6.78806C3.16009 6.69541 3.31027 6.55065 3.42001 6.37694L4.13624 6.56803C4.13047 6.60856 4.12469 6.6433 4.12469 6.68383C4.12469 7.10074 4.44237 7.45395 4.85825 7.49449C5.27412 7.53502 5.65534 7.25129 5.73043 6.83438C5.80552 6.41748 5.55715 6.01794 5.15283 5.90792C4.7485 5.79211 4.32685 6.00636 4.17668 6.4001L3.50088 6.2206C3.5933 6.00057 3.61062 5.75737 3.55286 5.52576L5.5456 4.60508C5.91527 5.06832 6.58529 5.16675 7.07047 4.81933C7.55566 4.4719 7.68273 3.80601 7.35928 3.30804L8.63 2.0631C8.78596 2.16154 8.96502 2.22523 9.14407 2.23681V2.7869C8.72242 2.83323 8.40474 3.20381 8.42784 3.6323C8.45095 4.06079 8.80329 4.39663 9.23071 4.39663C9.65814 4.39663 10.0105 4.06079 10.0336 3.6323C10.0567 3.20381 9.74478 2.83323 9.31735 2.7869V2.23681C9.47908 2.22523 9.62926 2.17891 9.76789 2.10364L11.1599 3.69599C10.8365 4.12448 10.8596 4.72089 11.2119 5.12043C11.57 5.51997 12.1592 5.61261 12.6213 5.33467C13.0833 5.05673 13.2797 4.49507 13.1007 3.9913L13.5339 3.74811C13.8111 4.07237 14.2905 4.13027 14.6313 3.8697C14.9721 3.61493 15.053 3.13433 14.8161 2.78111C14.5793 2.4279 14.1057 2.31788 13.7418 2.53792C13.3779 2.75795 13.2451 3.22118 13.4414 3.60335L13.0314 3.83496C12.8638 3.52807 12.5635 3.31962 12.2227 3.2675C11.8819 3.21539 11.5296 3.32541 11.2812 3.5686L9.91806 2.01099C10.0509 1.90676 10.1607 1.76779 10.2357 1.61724L11.4314 1.81412C11.5238 2.23102 11.9281 2.50317 12.344 2.4279C12.7657 2.35841 13.0545 1.97046 13.0082 1.54776C12.962 1.12506 12.5924 0.806589 12.1707 0.829751C11.7433 0.852912 11.4141 1.20034 11.4083 1.62882L10.2993 1.44353C10.4552 0.910816 10.2011 0.343358 9.69857 0.105952C9.19606 -0.131454 8.60112 0.0422581 8.29499 0.505489C7.98886 0.96872 8.06973 1.58829 8.4856 1.95888L7.24953 3.16907C7.05892 2.94903 6.78745 2.81006 6.49865 2.7869V1.94151C6.9203 1.89518 7.23798 1.5246 7.21487 1.09611C7.19177 0.66762 6.84521 0.337568 6.41778 0.337568C5.99035 0.337568 5.63801 0.67341 5.61491 1.1019C5.59181 1.53039 5.90371 1.90097 6.33114 1.9473V2.7869C5.94992 2.81585 5.60913 3.04168 5.43008 3.37752C5.25102 3.71915 5.2568 4.12448 5.44741 4.46032L3.50666 5.35204C3.43734 5.18412 3.3276 5.03936 3.18897 4.92356L3.94563 3.55702C4.01495 3.57439 4.07848 3.58598 4.1478 3.58598C4.55789 3.58598 4.89868 3.27908 4.95067 2.87376C5.00265 2.46843 4.73695 2.09206 4.34418 1.99362C3.94563 1.89518 3.54131 2.10943 3.39691 2.49159C3.25251 2.87376 3.42001 3.30225 3.77813 3.49333L3.04457 4.82512C2.59982 4.55876 2.03954 4.63404 1.67565 5.00462C1.31753 5.37521 1.254 5.93687 1.52547 6.37694C1.79695 6.81701 2.32834 7.01389 2.81931 6.85754L3.69149 8.56571C3.472 8.72784 3.31605 8.97104 3.26406 9.23739L2.6287 9.0521C2.64602 8.98841 2.6518 8.91892 2.6518 8.85523C2.6518 8.44411 2.34567 8.10248 1.94135 8.05616C1.53702 8.00983 1.16158 8.2704 1.06339 8.66994C0.965196 9.06947 1.18469 9.4748 1.57168 9.61377C1.9529 9.75274 2.38033 9.58482 2.56516 9.22002L3.24096 9.4169C3.24096 9.43427 3.24096 9.45164 3.24096 9.46901C3.24096 9.85118 3.43157 10.2044 3.75503 10.4071L3.32182 10.9745C3.00414 10.6908 2.51895 10.7082 2.2186 11.015C1.91824 11.3219 1.90669 11.8025 2.19549 12.121C2.4843 12.4395 2.96371 12.4742 3.29872 12.2021C3.63373 11.9299 3.69149 11.4493 3.44312 11.1019L3.91098 10.4881C4.0496 10.5518 4.20556 10.5808 4.36151 10.5808C4.38461 10.5808 4.40772 10.5808 4.43082 10.575L4.77738 12.5379C4.3153 12.6769 3.99184 13.0996 3.97451 13.5802C3.96296 14.0666 4.26332 14.5009 4.71962 14.663C5.17593 14.8251 5.68422 14.6746 5.9788 14.2866L7.59609 15.0104C7.58454 15.0683 7.57299 15.132 7.57299 15.1899C7.57299 15.601 7.87912 15.9485 8.28922 15.9948C8.69932 16.0411 9.07476 15.7747 9.16718 15.3752C9.25959 14.9757 9.03433 14.5703 8.64733 14.4314C8.26034 14.2924 7.83291 14.4719 7.65385 14.8425L6.07699 14.1361C6.14631 14.0087 6.19252 13.8697 6.20407 13.7249L8.26034 13.2212C8.41629 13.5107 8.69354 13.7134 9.017 13.7828C9.34046 13.8465 9.67547 13.7655 9.92962 13.5628L10.6978 14.2287C10.5188 14.6225 10.6747 15.0857 11.0559 15.2826C11.4372 15.4852 11.905 15.352 12.1245 14.9815C12.344 14.6109 12.24 14.1361 11.8877 13.8929C11.5296 13.6497 11.0502 13.7307 10.7902 14.0724L10.0567 13.4412C10.1664 13.3254 10.2473 13.1806 10.2993 13.0301L13.3548 13.1806C13.3606 13.6265 13.7187 13.9797 14.1635 13.9797C14.6082 13.9797 14.9663 13.6149 14.9605 13.1749C14.9605 12.7406 14.6024 12.3816 14.1577 12.3816Z"
            fill="#FF473E" />
    </g>
    <path
        d="M27.1641 9.83496H28.4766C28.4082 10.4639 28.2282 11.0267 27.9365 11.5234C27.6449 12.0202 27.2324 12.4144 26.6992 12.7061C26.166 12.9932 25.5007 13.1367 24.7031 13.1367C24.1198 13.1367 23.5889 13.0273 23.1104 12.8086C22.6364 12.5898 22.2285 12.2799 21.8867 11.8789C21.5449 11.4733 21.2806 10.988 21.0938 10.4229C20.9115 9.85319 20.8203 9.21973 20.8203 8.52246V7.53125C20.8203 6.83398 20.9115 6.2028 21.0938 5.6377C21.2806 5.06803 21.5472 4.5804 21.8936 4.1748C22.2445 3.76921 22.666 3.45703 23.1582 3.23828C23.6504 3.01953 24.2041 2.91016 24.8193 2.91016C25.5713 2.91016 26.207 3.05143 26.7266 3.33398C27.2461 3.61654 27.6494 4.00846 27.9365 4.50977C28.2282 5.00651 28.4082 5.58301 28.4766 6.23926H27.1641C27.1003 5.77441 26.9818 5.37565 26.8086 5.04297C26.6354 4.70573 26.3893 4.44596 26.0703 4.26367C25.7513 4.08138 25.3343 3.99023 24.8193 3.99023C24.3773 3.99023 23.9876 4.07454 23.6504 4.24316C23.3177 4.41178 23.0374 4.65104 22.8096 4.96094C22.5863 5.27083 22.4176 5.64225 22.3037 6.0752C22.1898 6.50814 22.1328 6.98893 22.1328 7.51758V8.52246C22.1328 9.01009 22.1829 9.4681 22.2832 9.89648C22.388 10.3249 22.5452 10.7008 22.7549 11.0244C22.9645 11.348 23.2311 11.6032 23.5547 11.79C23.8783 11.9723 24.2611 12.0635 24.7031 12.0635C25.2637 12.0635 25.7103 11.9746 26.043 11.7969C26.3757 11.6191 26.6263 11.3639 26.7949 11.0312C26.9681 10.6986 27.0911 10.2998 27.1641 9.83496ZM34.4443 11.7354V7.92773C34.4443 7.63607 34.3851 7.38314 34.2666 7.16895C34.1527 6.9502 33.9795 6.78158 33.7471 6.66309C33.5146 6.5446 33.2275 6.48535 32.8857 6.48535C32.5667 6.48535 32.2865 6.54004 32.0449 6.64941C31.8079 6.75879 31.6211 6.90234 31.4844 7.08008C31.3522 7.25781 31.2861 7.44922 31.2861 7.6543H30.0215C30.0215 7.38997 30.0898 7.12793 30.2266 6.86816C30.3633 6.6084 30.5592 6.3737 30.8145 6.16406C31.0742 5.94987 31.3841 5.78125 31.7441 5.6582C32.1087 5.5306 32.5143 5.4668 32.9609 5.4668C33.4987 5.4668 33.9727 5.55794 34.3828 5.74023C34.7975 5.92253 35.1211 6.19824 35.3535 6.56738C35.5905 6.93197 35.709 7.38997 35.709 7.94141V11.3867C35.709 11.6328 35.7295 11.8949 35.7705 12.1729C35.8161 12.4508 35.8822 12.6901 35.9688 12.8906V13H34.6494C34.5856 12.8542 34.5355 12.6605 34.499 12.4189C34.4626 12.1729 34.4443 11.945 34.4443 11.7354ZM34.6631 8.51562L34.6768 9.4043H33.3984C33.0384 9.4043 32.7171 9.43392 32.4346 9.49316C32.152 9.54785 31.915 9.63216 31.7236 9.74609C31.5322 9.86003 31.3864 10.0036 31.2861 10.1768C31.1859 10.3454 31.1357 10.5436 31.1357 10.7715C31.1357 11.0039 31.1882 11.2158 31.293 11.4072C31.3978 11.5986 31.555 11.7513 31.7646 11.8652C31.9788 11.9746 32.2409 12.0293 32.5508 12.0293C32.9382 12.0293 33.2799 11.9473 33.5762 11.7832C33.8724 11.6191 34.1071 11.4186 34.2803 11.1816C34.458 10.9447 34.5537 10.7145 34.5674 10.4912L35.1074 11.0996C35.0755 11.291 34.9889 11.5029 34.8477 11.7354C34.7064 11.9678 34.5173 12.1911 34.2803 12.4053C34.0479 12.6149 33.7699 12.7904 33.4463 12.9316C33.1273 13.0684 32.7673 13.1367 32.3662 13.1367C31.8649 13.1367 31.4251 13.0387 31.0469 12.8428C30.6732 12.6468 30.3815 12.3848 30.1719 12.0566C29.9668 11.724 29.8643 11.3525 29.8643 10.9424C29.8643 10.5459 29.9417 10.1973 30.0967 9.89648C30.2516 9.59115 30.4749 9.33822 30.7666 9.1377C31.0583 8.93262 31.4092 8.77767 31.8193 8.67285C32.2295 8.56803 32.6875 8.51562 33.1934 8.51562H34.6631ZM42.0049 11.0381C42.0049 10.8558 41.9639 10.6872 41.8818 10.5322C41.8044 10.3727 41.6426 10.2292 41.3965 10.1016C41.1549 9.9694 40.7904 9.85547 40.3027 9.75977C39.8926 9.67318 39.5212 9.57064 39.1885 9.45215C38.8604 9.33366 38.5801 9.1901 38.3477 9.02148C38.1198 8.85286 37.9443 8.65462 37.8213 8.42676C37.6982 8.19889 37.6367 7.93229 37.6367 7.62695C37.6367 7.33529 37.7005 7.05957 37.8281 6.7998C37.9603 6.54004 38.1449 6.3099 38.3818 6.10938C38.6234 5.90885 38.9128 5.75163 39.25 5.6377C39.5872 5.52376 39.9632 5.4668 40.3779 5.4668C40.9704 5.4668 41.4762 5.57161 41.8955 5.78125C42.3148 5.99089 42.6361 6.27116 42.8594 6.62207C43.0827 6.96842 43.1943 7.35352 43.1943 7.77734H41.9297C41.9297 7.57227 41.8682 7.37402 41.7451 7.18262C41.6266 6.98665 41.4512 6.82487 41.2188 6.69727C40.9909 6.56966 40.7106 6.50586 40.3779 6.50586C40.027 6.50586 39.7422 6.56055 39.5234 6.66992C39.3092 6.77474 39.152 6.90918 39.0518 7.07324C38.9561 7.2373 38.9082 7.41048 38.9082 7.59277C38.9082 7.72949 38.931 7.85254 38.9766 7.96191C39.0267 8.06673 39.1133 8.16471 39.2363 8.25586C39.3594 8.34245 39.5326 8.42448 39.7559 8.50195C39.9792 8.57943 40.264 8.6569 40.6104 8.73438C41.2165 8.87109 41.7155 9.03516 42.1074 9.22656C42.4993 9.41797 42.791 9.65267 42.9824 9.93066C43.1738 10.2087 43.2695 10.5459 43.2695 10.9424C43.2695 11.266 43.2012 11.5622 43.0645 11.8311C42.9323 12.0999 42.7386 12.3324 42.4834 12.5283C42.2327 12.7197 41.932 12.8701 41.5811 12.9795C41.2347 13.0843 40.8451 13.1367 40.4121 13.1367C39.7604 13.1367 39.209 13.0205 38.7578 12.7881C38.3066 12.5557 37.9648 12.2549 37.7324 11.8857C37.5 11.5166 37.3838 11.127 37.3838 10.7168H38.6553C38.6735 11.0632 38.7738 11.3389 38.9561 11.5439C39.1383 11.7445 39.3617 11.888 39.626 11.9746C39.8903 12.0566 40.1523 12.0977 40.4121 12.0977C40.7585 12.0977 41.0479 12.0521 41.2803 11.9609C41.5173 11.8698 41.6973 11.7445 41.8203 11.585C41.9434 11.4255 42.0049 11.2432 42.0049 11.0381ZM46.1953 7.02539V15.8438H44.9238V5.60352H46.0859L46.1953 7.02539ZM51.1787 9.24023V9.38379C51.1787 9.92155 51.1149 10.4206 50.9873 10.8809C50.8597 11.3366 50.6729 11.7331 50.4268 12.0703C50.1852 12.4076 49.8867 12.6696 49.5312 12.8564C49.1758 13.0433 48.7679 13.1367 48.3076 13.1367C47.8382 13.1367 47.4235 13.0592 47.0635 12.9043C46.7035 12.7493 46.3981 12.5238 46.1475 12.2275C45.8968 11.9313 45.6963 11.5758 45.5459 11.1611C45.4001 10.7464 45.2998 10.2793 45.2451 9.75977V8.99414C45.2998 8.44727 45.4023 7.95736 45.5527 7.52441C45.7031 7.09147 45.9014 6.72233 46.1475 6.41699C46.3981 6.1071 46.7012 5.8724 47.0566 5.71289C47.4121 5.54883 47.8223 5.4668 48.2871 5.4668C48.752 5.4668 49.1644 5.55794 49.5244 5.74023C49.8844 5.91797 50.1875 6.17318 50.4336 6.50586C50.6797 6.83854 50.8643 7.2373 50.9873 7.70215C51.1149 8.16243 51.1787 8.67513 51.1787 9.24023ZM49.9072 9.38379V9.24023C49.9072 8.87109 49.8685 8.52474 49.791 8.20117C49.7135 7.87305 49.5928 7.58594 49.4287 7.33984C49.2692 7.08919 49.0641 6.89323 48.8135 6.75195C48.5628 6.60612 48.2643 6.5332 47.918 6.5332C47.599 6.5332 47.321 6.58789 47.084 6.69727C46.8516 6.80664 46.6533 6.95475 46.4893 7.1416C46.3252 7.32389 46.1908 7.53353 46.0859 7.77051C45.9857 8.00293 45.9105 8.24447 45.8604 8.49512V10.2656C45.9515 10.5846 46.0791 10.8854 46.2432 11.168C46.4072 11.446 46.626 11.6715 46.8994 11.8447C47.1729 12.0133 47.5169 12.0977 47.9316 12.0977C48.2734 12.0977 48.5674 12.027 48.8135 11.8857C49.0641 11.7399 49.2692 11.5417 49.4287 11.291C49.5928 11.0404 49.7135 10.7533 49.791 10.4297C49.8685 10.1016 49.9072 9.75293 49.9072 9.38379ZM55.8613 13.1367C55.3464 13.1367 54.8792 13.0501 54.46 12.877C54.0452 12.6992 53.6875 12.4508 53.3867 12.1318C53.0905 11.8128 52.8626 11.4346 52.7031 10.9971C52.5436 10.5596 52.4639 10.0811 52.4639 9.56152V9.27441C52.4639 8.67285 52.5527 8.13737 52.7305 7.66797C52.9082 7.19401 53.1497 6.79297 53.4551 6.46484C53.7604 6.13672 54.1068 5.88835 54.4941 5.71973C54.8815 5.55111 55.2826 5.4668 55.6973 5.4668C56.2259 5.4668 56.6816 5.55794 57.0645 5.74023C57.4518 5.92253 57.7686 6.17773 58.0146 6.50586C58.2607 6.82943 58.443 7.21224 58.5615 7.6543C58.68 8.0918 58.7393 8.57031 58.7393 9.08984V9.65723H53.2158V8.625H57.4746V8.5293C57.4564 8.20117 57.388 7.88216 57.2695 7.57227C57.1556 7.26237 56.9733 7.00716 56.7227 6.80664C56.472 6.60612 56.1302 6.50586 55.6973 6.50586C55.4102 6.50586 55.1458 6.56738 54.9043 6.69043C54.6628 6.80892 54.4554 6.98665 54.2822 7.22363C54.109 7.46061 53.9746 7.75 53.8789 8.0918C53.7832 8.43359 53.7354 8.8278 53.7354 9.27441V9.56152C53.7354 9.91243 53.7832 10.2428 53.8789 10.5527C53.9792 10.8581 54.1227 11.127 54.3096 11.3594C54.501 11.5918 54.7311 11.7741 55 11.9062C55.2734 12.0384 55.5833 12.1045 55.9297 12.1045C56.3763 12.1045 56.7546 12.0133 57.0645 11.8311C57.3743 11.6488 57.6455 11.4049 57.8779 11.0996L58.6436 11.708C58.484 11.9495 58.2812 12.1797 58.0352 12.3984C57.7891 12.6172 57.486 12.7949 57.126 12.9316C56.7705 13.0684 56.349 13.1367 55.8613 13.1367ZM61.4805 6.76562V13H60.2158V5.60352H61.4463L61.4805 6.76562ZM63.791 5.5625L63.7842 6.73828C63.6794 6.71549 63.5791 6.70182 63.4834 6.69727C63.3923 6.68815 63.2874 6.68359 63.1689 6.68359C62.8773 6.68359 62.6198 6.72917 62.3965 6.82031C62.1732 6.91146 61.984 7.03906 61.8291 7.20312C61.6742 7.36719 61.5511 7.56315 61.46 7.79102C61.3734 8.01432 61.3164 8.26042 61.2891 8.5293L60.9336 8.73438C60.9336 8.28776 60.9769 7.86849 61.0635 7.47656C61.1546 7.08464 61.2936 6.73828 61.4805 6.4375C61.6673 6.13216 61.9043 5.89518 62.1914 5.72656C62.4831 5.55339 62.8294 5.4668 63.2305 5.4668C63.3216 5.4668 63.4264 5.47819 63.5449 5.50098C63.6634 5.51921 63.7454 5.53971 63.791 5.5625Z"
        fill="#FF473E" />
    <defs>
        <clipPath id="clip0_433_2712">
            <rect width="16" height="16" fill="white" />
        </clipPath>
    </defs>
</svg>