<svg xmlns:xlink="http://www.w3.org/1999/xlink" width="24" height="24" viewBox="0 0 28 28" fill="none" xmlns="http://www.w3.org/2000/svg">
    <g clip-path="url(#clip0_1_1899)">
        <path d="M24.079 0.690475C23.0899 0.690475 22.1715 1.20162 21.6534 2.0419L16.0709 10.3029C15.889 10.5752 15.9628 10.9422 16.236 11.1235C16.4574 11.2706 16.7503 11.2524 16.952 11.0795L22.447 6.32901C22.5383 6.24711 22.679 6.25545 22.7612 6.34645C22.7985 6.38816 22.8183 6.44201 22.8183 6.49737V21.3707C22.8183 21.4935 22.7186 21.5921 22.5953 21.5921C22.5291 21.5921 22.4668 21.5633 22.4249 21.5125L5.81436 1.69457C5.27339 1.05829 4.47904 0.691234 3.64284 0.690475H3.0623C1.4911 0.690475 0.217407 1.96 0.217407 3.52605V24.4739C0.217407 26.04 1.4911 27.3095 3.0623 27.3095C4.05143 27.3095 4.9698 26.7984 5.48795 25.9581L11.0705 17.6971C11.2523 17.4248 11.1785 17.0578 10.9053 16.8765C10.6839 16.7294 10.391 16.7476 10.1894 16.9205L4.69436 21.671C4.60306 21.7529 4.4623 21.7445 4.38013 21.6535C4.34284 21.6118 4.32306 21.558 4.32382 21.5026V6.62554C4.32382 6.50268 4.42349 6.40409 4.54675 6.40409C4.61219 6.40409 4.67534 6.43291 4.71719 6.48372L21.3255 26.3054C21.8664 26.9417 22.6608 27.3088 23.497 27.3095H24.0775C25.6487 27.3103 26.9232 26.0415 26.9247 24.4755V3.52605C26.9247 1.96 25.651 0.690475 24.0798 0.690475H24.079Z" fill="black"></path>
    </g>
</svg>
