<svg width="25" height="24" viewBox="0 0 25 24" fill="none" xmlns="http://www.w3.org/2000/svg">
<path d="M17.8825 16.356L23.5954 13.0572C23.8983 12.882 24.0854 12.557 24.0854 12.2083V5.6106C24.0854 5.26184 23.8983 4.93689 23.5954 4.76165L17.8825 1.46282C17.5796 1.28759 17.2036 1.28929 16.9025 1.46282L11.1895 4.76165C10.8867 4.93689 10.6995 5.26184 10.6995 5.6106V17.4006L6.69294 19.7127L2.68637 17.4006V12.7748L6.69294 10.4628L9.33511 11.9888V8.8856L7.18288 7.64196C7.03486 7.5569 6.86482 7.51097 6.69294 7.51097C6.52107 7.51097 6.35102 7.5569 6.203 7.64196L0.489981 10.9408C0.187148 11.116 0 11.441 0 11.7898V18.3875C0 18.7362 0.187148 19.0611 0.489981 19.2363L6.203 22.5352C6.50577 22.7087 6.88011 22.7087 7.18288 22.5352L12.8959 19.2363C13.1988 19.0611 13.3858 18.7362 13.3858 18.3875V6.59566L13.4573 6.55483L17.3908 4.28359L21.3974 6.59566V11.2215L17.3908 13.5336L14.752 12.0109V15.1141L16.9008 16.3544C17.2036 16.5279 17.5796 16.5279 17.8807 16.3544L17.8825 16.356Z" fill="url(#paint0_linear_5452_16939)"/>
<defs>
<linearGradient id="paint0_linear_5452_16939" x1="-0.0782618" y1="19.0339" x2="23.051" y2="5.6089" gradientUnits="userSpaceOnUse">
<stop stop-color="#A726C1"/>
<stop offset="0.88" stop-color="#803BDF"/>
<stop offset="1" stop-color="#7B3FE4"/>
</linearGradient>
</defs>
</svg>
