<svg width="32" height="16" viewBox="0 0 32 16" fill="none" xmlns="http://www.w3.org/2000/svg">
    <path fill-rule="evenodd" clip-rule="evenodd"
        d="M31.9999 8.87995C31.9999 6.60439 30.8977 4.80884 28.7911 4.80884C26.6755 4.80884 25.3955 6.60439 25.3955 8.86217C25.3955 11.5377 26.9066 12.8888 29.0755 12.8888C30.1333 12.8888 30.9333 12.6488 31.5377 12.3111V10.5333C30.9333 10.8355 30.2399 11.0222 29.3599 11.0222C28.4977 11.0222 27.7333 10.7199 27.6355 9.67106H31.9822C31.9822 9.5555 31.9999 9.09328 31.9999 8.87995ZM27.6088 8.0355C27.6088 7.03106 28.2222 6.61328 28.7822 6.61328C29.3244 6.61328 29.9022 7.03106 29.9022 8.0355H27.6088Z"
        fill="#635BFF" />
    <path fill-rule="evenodd" clip-rule="evenodd"
        d="M21.9645 4.80884C21.0933 4.80884 20.5333 5.21773 20.2222 5.50217L20.1067 4.95106H18.1511V15.3155L20.3733 14.8444L20.3822 12.3288C20.7022 12.5599 21.1733 12.8888 21.9556 12.8888C23.5467 12.8888 24.9956 11.6088 24.9956 8.79106C24.9867 6.21328 23.52 4.80884 21.9645 4.80884ZM21.4311 10.9333C20.9067 10.9333 20.5956 10.7466 20.3822 10.5155L20.3733 7.21773C20.6045 6.95995 20.9245 6.78217 21.4311 6.78217C22.24 6.78217 22.8 7.68884 22.8 8.85328C22.8 10.0444 22.2489 10.9333 21.4311 10.9333Z"
        fill="#635BFF" />
    <path fill-rule="evenodd" clip-rule="evenodd" d="M15.0938 4.28444L17.3249 3.80444V2L15.0938 2.47111V4.28444Z"
        fill="#635BFF" />
    <path d="M17.3249 4.95996H15.0938V12.7377H17.3249V4.95996Z" fill="#635BFF" />
    <path fill-rule="evenodd" clip-rule="evenodd"
        d="M12.7019 5.61782L12.5596 4.96004H10.6396V12.7378H12.8619V7.46671C13.3863 6.78227 14.2752 6.90671 14.5508 7.00449V4.96004C14.2663 4.85338 13.2263 4.65782 12.7019 5.61782Z"
        fill="#635BFF" />
    <path fill-rule="evenodd" clip-rule="evenodd"
        d="M8.25785 3.03101L6.08897 3.49323L6.08008 10.6132C6.08008 11.9288 7.06674 12.8977 8.3823 12.8977C9.11119 12.8977 9.64452 12.7643 9.93785 12.6043V10.7999C9.65341 10.9154 8.24897 11.3243 8.24897 10.0088V6.85323H9.93785V4.95989H8.24897L8.25785 3.03101Z"
        fill="#635BFF" />
    <path fill-rule="evenodd" clip-rule="evenodd"
        d="M2.24889 7.21773C2.24889 6.87106 2.53333 6.73773 3.00444 6.73773C3.68 6.73773 4.53333 6.94217 5.20889 7.30661V5.21773C4.47111 4.92439 3.74222 4.80884 3.00444 4.80884C1.2 4.80884 0 5.75106 0 7.32439C0 9.77772 3.37778 9.38661 3.37778 10.4444C3.37778 10.8533 3.02222 10.9866 2.52444 10.9866C1.78667 10.9866 0.844444 10.6844 0.0977776 10.2755V12.3911C0.924444 12.7466 1.76 12.8977 2.52444 12.8977C4.37333 12.8977 5.64444 11.9822 5.64444 10.3911C5.63555 7.74217 2.24889 8.21328 2.24889 7.21773Z"
        fill="#635BFF" />
</svg>