<svg width="60" height="16" viewBox="0 0 60 16" fill="none" xmlns="http://www.w3.org/2000/svg">
    <g clip-path="url(#clip0_433_2726)">
        <path d="M14.4972 1.71411V6.64952L0 12.4812L14.4972 1.71411Z" fill="#00C9FF" />
        <path
            d="M11.7791 1.5V10.0139C11.7791 11.2037 11.3018 12.3447 10.4521 13.186C9.60244 14.0274 8.45004 14.5 7.24844 14.5C6.04684 14.5 4.89444 14.0274 4.04477 13.186C3.19511 12.3447 2.71777 11.2037 2.71777 10.0139V6.42637L5.43571 4.9453V10.0139C5.41027 10.2351 5.43231 10.4591 5.50037 10.6713C5.56847 10.8835 5.68104 11.0791 5.83077 11.2452C5.98051 11.4113 6.16397 11.5442 6.36917 11.6352C6.57441 11.7262 6.79671 11.7732 7.02157 11.7732C7.24641 11.7732 7.46874 11.7262 7.67394 11.6352C7.87914 11.5442 8.06264 11.4113 8.21234 11.2452C8.36207 11.0791 8.47467 10.8835 8.54274 10.6713C8.61084 10.4591 8.63287 10.2351 8.60741 10.0139V3.21813L11.7791 1.5Z"
            fill="#0D67FE" />
        <path
            d="M21.112 3.67651V5.87781C21.112 6.61608 20.6879 7.00665 20.1589 7.00665C19.728 7.00665 19.3905 6.75831 19.3905 6.08325V3.67651H18.6016V6.13968C18.6016 7.08568 19.1123 7.69528 19.9514 7.69528C20.1888 7.69765 20.4223 7.63585 20.6269 7.51648C20.8314 7.39711 20.9991 7.22475 21.112 7.01795H21.1257V7.58011H21.901V3.67651H21.112Z"
            fill="#0D67FE" />
        <path
            d="M24.5547 3.56341C24.3118 3.55945 24.0723 3.62022 23.8613 3.73938C23.6503 3.85855 23.4755 4.03172 23.3553 4.24075H23.3417V3.67631H22.5664V7.58218H23.3553V5.38088C23.3553 4.64262 23.7931 4.25202 24.3449 4.25202C24.801 4.25202 25.1567 4.50038 25.1567 5.17545V7.58218H25.9456V5.11221C25.9456 4.17301 25.4234 3.56341 24.5547 3.56341Z"
            fill="#0D67FE" />
        <path
            d="M28.29 5.21663H28.1395C27.4554 5.21663 27.3209 5.09697 27.3209 4.79217C27.3209 4.48737 27.5945 4.23676 28.103 4.23676C28.2004 4.2292 28.2983 4.24186 28.3904 4.27403C28.4826 4.30616 28.5669 4.35703 28.638 4.4234C28.7091 4.48973 28.7654 4.5701 28.8032 4.65926C28.8411 4.74843 28.8596 4.84446 28.8577 4.9412H29.6809C29.6239 4.15323 29.0356 3.56396 28.103 3.56396C27.0359 3.56396 26.5069 4.1871 26.5069 4.79217C26.5069 5.49433 27.0952 5.89846 27.8339 5.89846H28.0483C28.7323 5.89846 28.9375 6.0565 28.9375 6.4313C28.9375 6.76543 28.5932 7.02056 28.0779 7.02056C27.8701 7.03166 27.6663 6.96103 27.5108 6.82403C27.3554 6.687 27.2609 6.49473 27.2479 6.28903H26.4248C26.475 7.09956 27.1476 7.6956 28.0665 7.6956C29.1701 7.6956 29.7447 7.06343 29.7447 6.4313C29.7561 5.70656 29.1792 5.21663 28.29 5.21663Z"
            fill="#0D67FE" />
        <path
            d="M32.2347 4.35834V3.681H31.1653V3.13916H30.3787V3.6765H29.7334V4.3538H30.3787V6.53254C30.3787 7.26404 30.7663 7.57784 31.4982 7.57784H32.237V6.90054H31.5689C31.514 6.90374 31.459 6.8951 31.4078 6.87524C31.3566 6.85537 31.3103 6.82477 31.2721 6.7855C31.234 6.74624 31.2049 6.69924 31.1869 6.64777C31.1688 6.5963 31.1623 6.5416 31.1676 6.48737V4.35834H32.2347Z"
            fill="#0D67FE" />
        <path
            d="M34.4577 3.56372C33.3517 3.56372 32.4785 4.30199 32.4785 5.62955C32.4785 6.95709 33.3517 7.69535 34.4577 7.69535C35.5637 7.69535 36.437 6.95032 36.437 5.62955C36.437 4.30879 35.5613 3.56372 34.4577 3.56372ZM34.4577 7.02032C33.8123 7.02032 33.2948 6.56875 33.2948 5.62955C33.2948 4.69032 33.8123 4.22975 34.4577 4.23652C35.103 4.24329 35.6183 4.67679 35.6183 5.62955C35.6183 6.58232 35.103 7.01352 34.4577 7.02032Z"
            fill="#0D67FE" />
        <path
            d="M39.1052 3.5634C38.8369 3.55727 38.5716 3.61993 38.3352 3.74533C38.0986 3.87077 37.8989 4.05463 37.7552 4.2791H37.7372C37.7509 4.1233 37.7509 4.01043 37.7509 3.8682V3.67627H36.9619V8.27303H37.7509V7.41057C37.7509 7.26157 37.7509 7.1419 37.7372 6.97707H37.7509C37.8916 7.20533 38.0912 7.39227 38.3292 7.51847C38.5676 7.6447 38.8352 7.70567 39.1052 7.69503C40.0719 7.69503 40.9292 6.96353 40.9292 5.60663C40.9292 4.24973 40.0742 3.5634 39.1052 3.5634ZM38.9046 7.01997C38.1726 7.01997 37.7486 6.39683 37.7486 5.59987C37.7486 4.84803 38.1726 4.24523 38.9046 4.24523C39.6366 4.24523 40.0949 4.79387 40.0949 5.61567C40.0949 6.4375 39.6229 7.02677 38.9069 7.01997H38.9046Z"
            fill="#0D67FE" />
        <path
            d="M43.6087 3.5634C43.3404 3.55727 43.0751 3.61993 42.8384 3.74533C42.6021 3.87077 42.4024 4.05463 42.2587 4.2791H42.2451C42.2587 4.1233 42.2587 4.01043 42.2587 3.8682V3.67627H41.4697V8.27303H42.2587V7.41057C42.2587 7.26157 42.2587 7.1419 42.2451 6.97707H42.2587C42.3991 7.20467 42.5981 7.39113 42.8354 7.5173C43.0727 7.6435 43.3394 7.70483 43.6087 7.69503C44.5754 7.69503 45.4214 6.96353 45.4214 5.60663C45.4214 4.24973 44.5777 3.5634 43.6087 3.5634ZM43.4081 7.01997C42.6761 7.01997 42.2517 6.39683 42.2517 5.59987C42.2517 4.84803 42.6761 4.24523 43.4081 4.24523C44.1397 4.24523 44.5981 4.79387 44.5981 5.61567C44.5981 6.4375 44.1217 7.02677 43.4081 7.01997Z"
            fill="#0D67FE" />
        <path
            d="M49.4794 6.9009C49.3721 6.9009 49.3221 6.8354 49.3221 6.709V4.99086C49.3221 4.16677 48.9207 3.56396 47.7374 3.56396C46.5971 3.56396 46.0661 4.13066 46.0091 4.9412H46.7977C46.8481 4.48963 47.1991 4.23676 47.7374 4.23676C48.1934 4.23676 48.5124 4.4377 48.5124 4.74926C48.5124 5.0044 48.3324 5.16016 47.7441 5.16016H47.4294C46.4901 5.16016 45.8584 5.53723 45.8584 6.39743C45.8584 7.3005 46.5244 7.70917 47.3064 7.70917C47.8877 7.70917 48.3827 7.45403 48.5764 6.90766C48.5971 7.30503 48.8637 7.58496 49.3654 7.58496H49.8214V6.90766L49.4794 6.9009ZM48.5331 5.77203C48.5331 6.65253 48.0521 7.0341 47.4364 7.0341C46.8981 7.0341 46.6837 6.72253 46.6837 6.4042C46.6837 6.08586 46.8687 5.8488 47.4431 5.8488H47.5571C48.1091 5.8488 48.4534 5.65686 48.5264 5.32273L48.5331 5.77203Z"
            fill="#0D67FE" />
        <path
            d="M52.4414 3.56381C52.1734 3.55761 51.9084 3.62028 51.672 3.74571C51.436 3.87115 51.2367 4.05505 51.0937 4.27951H51.0777C51.0907 4.14291 51.096 4.00575 51.0937 3.86858V2.43042H50.3047V7.58255H51.0937V7.41098C51.096 7.26631 51.0907 7.12161 51.0777 6.97748H51.0937C51.2337 7.20488 51.4324 7.39125 51.669 7.51745C51.906 7.64365 52.1724 7.70508 52.4414 7.69545C53.4104 7.69545 54.2654 6.96395 54.2654 5.60705C54.2654 4.25015 53.4104 3.56381 52.4414 3.56381ZM52.2407 7.02038C51.5087 7.02038 51.0867 6.39725 51.0867 5.60028C51.0867 4.84845 51.5087 4.24565 52.2407 4.24565C52.9724 4.24565 53.4307 4.79425 53.4307 5.61608C53.4307 6.43788 52.9567 7.02715 52.2407 7.02038Z"
            fill="#0D67FE" />
        <path d="M54.7576 2.43042V7.58255H55.5466V2.43042H54.7576Z" fill="#0D67FE" />
        <path
            d="M60.0004 5.27533C60.0004 4.29546 59.2114 3.56396 58.1351 3.56396C56.9951 3.56396 56.1924 4.3361 56.1924 5.6298C56.1924 6.87153 56.9724 7.6956 58.1351 7.6956C59.0884 7.6956 59.7997 7.14246 59.9594 6.3816H59.0997C59.0264 6.57546 58.8934 6.74153 58.7194 6.85623C58.5454 6.97093 58.3394 7.02843 58.1307 7.02056C57.5424 7.02056 57.1114 6.60286 57.0177 5.9075H59.9957L60.0004 5.27533ZM57.036 5.20986C57.0684 4.94223 57.1984 4.69553 57.4017 4.5163C57.605 4.33703 57.8674 4.23763 58.1397 4.23676C58.409 4.23536 58.669 4.3349 58.8674 4.51536C59.0657 4.69586 59.1877 4.94396 59.2091 5.20986H57.036Z"
            fill="#0D67FE" />
        <path
            d="M21.7186 8.27344V9.68904C21.7186 9.83804 21.7186 9.95997 21.7322 10.1225H21.7186C21.578 9.89587 21.3791 9.7102 21.1424 9.58447C20.9057 9.45874 20.6395 9.39744 20.371 9.40684C19.3951 9.40684 18.5469 10.1225 18.5469 11.4388C18.5469 12.7934 19.386 13.5407 20.371 13.5407C20.639 13.546 20.9039 13.4827 21.14 13.3569C21.3761 13.2311 21.5754 13.0472 21.7186 12.8228H21.7322C21.7186 12.9808 21.7186 13.0937 21.7186 13.2359V13.4278H22.5075V8.27344H21.7186ZM20.5785 12.8634C19.8534 12.8634 19.3791 12.2877 19.3791 11.4365C19.3791 10.5854 19.8534 10.0819 20.5785 10.0819C21.3036 10.0819 21.7186 10.6802 21.7186 11.4365C21.7186 12.2335 21.2945 12.8657 20.5717 12.8724L20.5785 12.8634Z"
            fill="#0D67FE" />
        <path
            d="M25.1325 9.41553C24.0266 9.41553 23.1533 10.1538 23.1533 11.4814C23.1533 12.8089 24.0266 13.5472 25.1325 13.5472C26.2384 13.5472 27.1117 12.8021 27.1117 11.4814C27.1117 10.1606 26.2361 9.41553 25.1325 9.41553ZM25.1325 12.8721C24.4872 12.8721 23.9696 12.4206 23.9696 11.4814C23.9696 10.5421 24.4872 10.0816 25.1325 10.0883C25.7778 10.0951 26.2931 10.5399 26.2931 11.4814C26.2931 12.4228 25.7778 12.8653 25.1325 12.8721Z"
            fill="#0D67FE" />
        <path
            d="M32.1223 9.41607C31.8722 9.40903 31.6251 9.47097 31.4085 9.59497C31.1918 9.71893 31.0143 9.9001 30.8956 10.1182H30.8751L30.8956 10.3056C30.8239 10.0437 30.6642 9.8138 30.4429 9.65377C30.2216 9.49373 29.9518 9.41307 29.678 9.4251C29.444 9.42787 29.2152 9.4942 29.0166 9.6168C28.818 9.7394 28.6572 9.91363 28.5516 10.1205H28.5379V9.52897H27.7627V13.4348H28.5516V11.2335C28.5516 10.4953 28.9734 10.1047 29.4774 10.1047C29.8992 10.1047 30.2002 10.3801 30.2002 11.0281V13.4348H30.9891V11.2268C30.9891 10.4885 31.4269 10.1115 31.9285 10.1115C32.3526 10.1115 32.6468 10.3869 32.6468 11.0349V13.4348H33.4357V10.9694C33.4357 10.0257 32.925 9.41607 32.1223 9.41607Z"
            fill="#0D67FE" />
        <path
            d="M37.7023 12.7522C37.5949 12.7522 37.5449 12.6867 37.5449 12.5603V10.8421C37.5449 10.0181 37.1413 9.41528 35.9489 9.41528C34.8086 9.41528 34.2796 9.98198 34.2226 10.7925H35.0116C35.0619 10.3523 35.4129 10.0881 35.9489 10.0881C36.4049 10.0881 36.7239 10.2868 36.7239 10.6006C36.7239 10.8557 36.5463 11.0115 35.9579 11.0115H35.6409C34.7016 11.0115 34.0723 11.3886 34.0723 12.2465C34.0723 13.1496 34.7379 13.5605 35.5199 13.5605C36.1016 13.5605 36.5963 13.3053 36.7879 12.759C36.8106 13.1563 37.0753 13.4363 37.5769 13.4363H38.0213V12.759L37.7023 12.7522ZM36.7559 11.6234C36.7559 12.5039 36.2749 12.8854 35.6569 12.8854C35.1209 12.8854 34.9046 12.5738 34.9046 12.2532C34.9046 11.9326 35.0913 11.7001 35.6659 11.7001H35.7799C36.3319 11.7001 36.6763 11.5082 36.7469 11.1741L36.7559 11.6234Z"
            fill="#0D67FE" />
        <path d="M38.5117 9.52856V13.4344H39.3007V9.52856H38.5117Z" fill="#0D67FE" />
        <path
            d="M42.1686 9.41572C41.926 9.41165 41.6866 9.47242 41.4759 9.59162C41.2656 9.71082 41.0913 9.88402 40.9716 10.093H40.9556V9.52859H40.1826V13.4345H40.9716V11.2332C40.9716 10.4949 41.4093 10.1043 41.961 10.1043C42.4169 10.1043 42.7706 10.3527 42.7706 11.0277V13.4345H43.5596V10.969C43.5596 10.0253 43.0283 9.41572 42.1686 9.41572Z"
            fill="#0D67FE" />
        <path
            d="M46.0476 11.0684H45.8973C45.2133 11.0684 45.081 10.9488 45.081 10.644C45.081 10.3392 45.3523 10.0795 45.863 10.0795C45.9603 10.0719 46.0583 10.0846 46.1503 10.1168C46.2423 10.1489 46.3263 10.1999 46.3973 10.2662C46.4683 10.3326 46.5243 10.413 46.562 10.5022C46.5993 10.5914 46.6176 10.6873 46.6156 10.7839H47.4386C47.3816 9.996 46.7933 9.40674 45.863 9.40674C44.7936 9.40674 44.267 10.0299 44.267 10.6349C44.267 11.3371 44.8553 11.7412 45.594 11.7412H45.8083C46.4923 11.7412 46.6976 11.897 46.6976 12.274C46.6976 12.6082 46.3533 12.8633 45.838 12.8633C45.632 12.8714 45.4313 12.7994 45.2783 12.6627C45.1253 12.526 45.0323 12.3354 45.0193 12.1318H44.1963C44.2463 12.9423 44.919 13.5384 45.838 13.5384C46.9416 13.5384 47.5163 12.9062 47.5163 12.274C47.5116 11.5583 46.937 11.0684 46.0476 11.0684Z"
            fill="#0D67FE" />
    </g>
    <defs>
        <clipPath id="clip0_433_2726">
            <rect width="60" height="16" fill="white" />
        </clipPath>
    </defs>
</svg>