<svg width="24" height="24" viewBox="0 0 24 24" fill="none" xmlns="http://www.w3.org/2000/svg">
<path opacity="0.9" d="M6.98998 3.59173H7.54286V2.4H6.98998C6.40381 2.39957 5.82328 2.49603 5.28162 2.68386C4.73997 2.87169 4.24781 3.14721 3.83333 3.49465C3.41885 3.8421 3.09016 4.25464 2.86609 4.70869C2.64199 5.16272 2.52694 5.64934 2.52745 6.14069V8.85517C2.52863 9.42993 2.2675 9.98331 1.79756 10.4018C1.32762 10.8204 0.684487 11.0724 0 11.1062L0.0394914 11.7021L0 12.2979C0.684487 12.3317 1.32762 12.5837 1.79756 13.0023C2.2675 13.4208 2.52863 13.9742 2.52745 14.549V17.6772C2.52536 18.7153 3.01501 19.7116 3.88882 20.4472C4.76262 21.1827 5.94906 21.5974 7.18743 21.6V20.4083C6.32875 20.4078 5.50538 20.1218 4.8982 19.6128C4.29102 19.1038 3.94965 18.4136 3.94914 17.6938V14.549C3.94973 13.9875 3.78628 13.4345 3.47305 12.9382C3.15983 12.4419 2.70635 12.0175 2.15228 11.7021C2.70477 11.3853 3.15704 10.9606 3.47007 10.4646C3.78312 9.96864 3.94752 9.41628 3.94914 8.85517V6.14069C3.95277 5.4656 4.27431 4.81904 4.8438 4.34167C5.41328 3.8643 6.18461 3.59477 6.98998 3.59173Z" fill="black"/>
<path opacity="0.9" d="M17.0115 3.59173H16.4572V2.4H17.0115C18.1954 2.40263 19.3296 2.79811 20.1648 3.49953C21.0001 4.20096 21.4681 5.15093 21.4659 6.14069V8.85517C21.4647 9.42993 21.7265 9.98331 22.1976 10.4018C22.6688 10.8204 23.3136 11.0724 24 11.1062L23.9604 11.7021L24 12.2979C23.3136 12.3317 22.6688 12.5837 22.1976 13.0023C21.7265 13.4208 21.4647 13.9742 21.4659 14.549V17.6772C21.4681 18.7153 20.9771 19.7116 20.1011 20.4472C19.2248 21.1827 18.0354 21.5974 16.7937 21.6V20.4083C17.6547 20.4078 18.4803 20.1218 19.089 19.6128C19.6978 19.1038 20.0399 18.4136 20.0405 17.6938V14.549C20.0399 13.9875 20.2038 13.4345 20.5178 12.9382C20.8318 12.4419 21.2866 12.0175 21.8421 11.7021C21.2881 11.3853 20.8346 10.9606 20.5208 10.4646C20.207 9.96864 20.0421 9.41628 20.0405 8.85517V6.14069C20.0427 5.80686 19.9659 5.47597 19.8146 5.167C19.6634 4.85805 19.4406 4.5771 19.1591 4.34028C18.8778 4.10344 18.5432 3.91541 18.1746 3.78696C17.806 3.6585 17.4108 3.59216 17.0115 3.59173Z" fill="black"/>
<path opacity="0.9" d="M16.3819 7.2H18.1714L14.4418 10.4418C13.7726 11.0033 12.9024 11.3143 12 11.3143C11.0975 11.3143 10.2273 11.0033 9.55817 10.4418L5.82855 7.2H7.6181L10.4446 9.65073C10.8667 10.01 11.4187 10.2093 11.9916 10.2093C12.5645 10.2093 13.1166 10.01 13.5387 9.65073L16.3819 7.2Z" fill="black"/>
<path opacity="0.9" d="M7.61326 16.8H5.82855L9.56477 13.564C10.2284 12.9992 11.0977 12.6857 12 12.6857C12.9023 12.6857 13.7715 12.9992 14.4352 13.564L18.1714 16.8H16.3867L13.5512 14.3344C13.1302 13.9775 12.5797 13.7795 12.0083 13.7795C11.437 13.7795 10.8864 13.9775 10.4655 14.3344L7.61326 16.8Z" fill="black"/>
</svg>
