<svg width="24" height="18" viewBox="0 0 24 18" fill="none" xmlns="http://www.w3.org/2000/svg">
    <path
        d="M7.5 16.5C7.5 15.6716 8.17158 15 9 15C9.82845 15 10.5 15.6716 10.5 16.5C10.5 17.3284 9.82845 18 9 18C8.17158 18 7.5 17.3284 7.5 16.5Z"
        fill="black" />
    <path
        d="M16.5 16.5C16.5 15.6716 17.1716 15 18 15C18.8284 15 19.5 15.6716 19.5 16.5C19.5 17.3284 18.8284 18 18 18C17.1716 18 16.5 17.3284 16.5 16.5Z"
        fill="black" />
    <path
        d="M1.875 1.125H3.60132C3.91597 1.125 4.19716 1.32139 4.30548 1.61682L7.52869 10.4078C7.96195 11.5895 9.0867 12.375 10.3453 12.375H16.9629C18.2541 12.375 19.4005 11.5486 19.809 10.3237L21.796 4.36216C21.958 3.87652 21.5965 3.375 21.0846 3.375H9.75"
        stroke="black" stroke-width="2" stroke-linecap="round" stroke-linejoin="round" />
</svg>