<svg width="20" height="20" viewBox="0 0 20 20" fill="none" xmlns="http://www.w3.org/2000/svg">
    <g clip-path="url(#clip0_3_1352)">
        <path
            d="M6.25 16.25C6.25 15.5596 6.80965 15 7.5 15C8.19037 15 8.75 15.5596 8.75 16.25C8.75 16.9404 8.19037 17.5 7.5 17.5C6.80965 17.5 6.25 16.9404 6.25 16.25Z"
            fill="#F2F2F2" />
        <path
            d="M13.75 16.25C13.75 15.5596 14.3096 15 15 15C15.6904 15 16.25 15.5596 16.25 16.25C16.25 16.9404 15.6904 17.5 15 17.5C14.3096 17.5 13.75 16.9404 13.75 16.25Z"
            fill="#F2F2F2" />
        <path
            d="M1.5625 3.4375H3.0011C3.26331 3.4375 3.49764 3.60116 3.5879 3.84735L6.27391 11.1731C6.63496 12.1579 7.57225 12.8125 8.62112 12.8125H14.1357C15.2117 12.8125 16.1671 12.1239 16.5075 11.1031L18.1634 6.13514C18.2984 5.73044 17.9971 5.3125 17.5705 5.3125H8.125"
            stroke="#F2F2F2" stroke-width="1.5" stroke-linecap="round" stroke-linejoin="round" />
    </g>
    <defs>
        <clipPath id="clip0_3_1352">
            <rect width="20" height="15" fill="white" transform="translate(0 2.5)" />
        </clipPath>
    </defs>
</svg>