<svg viewBox="0 0 424 80" xmlns="http://www.w3.org/2000/svg"><path d="M106.142 66.3093C101.948 66.3093 98.2172 65.426 94.9495 63.6595C91.7307 61.8929 89.1703 59.4885 87.2682 56.4461C85.415 53.3546 84.4883 49.846 84.4883 45.9204C84.4883 41.9457 85.415 38.4371 87.2682 35.3947C89.1703 32.3032 91.7307 29.8988 94.9495 28.1813C98.2172 26.4148 101.948 25.5315 106.142 25.5315C110.288 25.5315 113.994 26.4148 117.262 28.1813C120.53 29.8988 123.09 32.2787 124.943 35.3211C126.797 38.3635 127.723 41.8966 127.723 45.9204C127.723 49.846 126.797 53.3546 124.943 56.4461C123.09 59.4885 120.53 61.8929 117.262 63.6595C113.994 65.426 110.288 66.3093 106.142 66.3093ZM106.142 56.8877C108.044 56.8877 109.751 56.4461 111.263 55.5628C112.775 54.6795 113.97 53.4282 114.848 51.8089C115.726 50.1405 116.165 48.1776 116.165 45.9204C116.165 43.6141 115.726 41.6512 114.848 40.0319C113.97 38.4126 112.775 37.1613 111.263 36.278C109.751 35.3947 108.044 34.9531 106.142 34.9531C104.24 34.9531 102.533 35.3947 101.021 36.278C99.5096 37.1613 98.2903 38.4126 97.3637 40.0319C96.4858 41.6512 96.0469 43.6141 96.0469 45.9204C96.0469 48.1776 96.4858 50.1405 97.3637 51.8089C98.2903 53.4282 99.5096 54.6795 101.021 55.5628C102.533 56.4461 104.24 56.8877 106.142 56.8877Z" fill="currentColor"></path><path d="M188.786 66.3093V3.31228H200.199V66.3093H188.786Z" fill="currentColor"></path><path d="M212.253 65.7204V18.3279H223.666V65.7204H212.253ZM217.959 12.8075C215.862 12.8075 214.155 12.1941 212.839 10.9673C211.522 9.74054 210.863 8.21935 210.863 6.40373C210.863 4.58812 211.522 3.06692 212.839 1.84016C214.155 0.613386 215.862 0 217.959 0C220.057 0 221.764 0.588851 223.08 1.76655C224.397 2.89518 225.056 4.3673 225.056 6.18292C225.056 8.09667 224.397 9.69147 223.08 10.9673C221.812 12.1941 220.105 12.8075 217.959 12.8075Z" fill="currentColor"></path><path d="M287.764 65.7204V3.31228H299.176V42.0334V55.6698V65.7204H287.764Z" fill="currentColor"></path><path fill-rule="evenodd" clip-rule="evenodd" d="M21.5748 65.7209C9.75103 65.7209 0.166016 56.0768 0.166016 44.1803C0.166016 32.2837 9.75103 22.6396 21.5748 22.6396C25.1889 22.6396 28.5939 23.5407 31.5798 25.1318V2.72387H42.9835V65.7209H21.5748ZM31.5798 54.247V44.2885C31.5798 38.7886 27.1486 34.33 21.6823 34.33C16.2161 34.33 11.7848 38.7886 11.7848 44.2885C11.7848 49.7884 16.2161 54.247 21.6823 54.247H31.5798Z" fill="currentColor"></path><path d="M55.0175 65.7204V26.1203H65.9177V31.32C66.9931 29.8446 68.3587 28.6512 70.0144 27.7397C72.5992 26.2676 75.7449 25.5315 79.4514 25.5315V36.1308C78.9637 36.0817 78.5248 36.0572 78.1347 36.0572C77.7445 36.0081 77.3299 35.9836 76.891 35.9836C73.7697 35.9836 71.2337 36.8914 69.2828 38.707C67.3808 40.4735 66.4298 43.246 66.4298 47.0245V65.7204H55.0175Z" fill="currentColor"></path><path d="M151.372 64.1011C153.86 65.5732 156.762 66.3093 160.078 66.3093C163.785 66.3093 167.101 65.4751 170.027 63.8067C173.002 62.1383 175.343 59.7829 177.05 56.7405C178.806 53.6981 179.684 50.0914 179.684 45.9204C179.684 41.7984 178.806 38.2163 177.05 35.1739C175.343 32.1315 173.002 29.7761 170.027 28.1077C167.101 26.3902 163.785 25.5315 160.078 25.5315C156.615 25.5315 153.64 26.2676 151.153 27.7397C149.845 28.5138 149.211 28.8353 148.227 30.03L148.08 34.1141V45.9204C148.08 43.6141 148.519 41.6512 149.397 40.0319C150.275 38.4126 151.47 37.1613 152.982 36.278C154.494 35.3947 156.201 34.9531 158.103 34.9531C160.005 34.9531 161.687 35.3947 163.15 36.278C164.662 37.1613 165.857 38.4126 166.735 40.0319C167.662 41.6512 168.125 43.6141 168.125 45.9204C168.125 48.1776 167.662 50.1405 166.735 51.8089C165.857 53.4282 164.662 54.6795 163.15 55.5628C161.687 56.4461 160.005 56.8877 158.103 56.8877C156.201 56.8877 154.494 56.4461 152.982 55.5628C151.47 54.6795 150.275 53.4282 149.397 51.8089C148.575 50.2462 148.138 48.4252 148.086 46.3459L148.227 57.6974V61.5278C149.157 62.5529 150.206 63.4107 151.372 64.1011Z" fill="currentColor"></path><path fill-rule="evenodd" clip-rule="evenodd" d="M136.815 26.1203V80H148.227V61.5278V57.6974L148.086 46.3459C148.082 46.2052 148.08 46.0634 148.08 45.9204V34.1141L148.227 30.03V26.1203H136.815Z" fill="currentColor"></path><path d="M259.642 25.5315C262.763 25.5315 265.543 26.1694 267.982 27.4452C270.469 28.672 272.42 30.5858 273.834 33.1865C275.249 35.7382 275.956 39.0259 275.956 43.0497V65.7204H264.543V44.8163C264.543 41.6267 263.836 39.2713 262.422 37.7501C261.056 36.2289 259.106 35.4683 256.57 35.4683C254.765 35.4683 253.131 35.8609 251.668 36.646C250.254 37.3821 249.132 38.5352 248.303 40.1055C247.523 41.6758 247.132 43.6877 247.132 46.1412V65.7204H235.72V26.1203H246.62V30.8241C247.75 29.558 249.091 28.5054 250.644 27.6661C253.278 26.243 256.277 25.5315 259.642 25.5315Z" fill="currentColor"></path><path d="M329.462 26.1203H315.855L299.176 42.0334V55.6698L304.865 50.4356L313.071 42.8864L329.462 26.1203Z" fill="currentColor"></path><path d="M317.099 65.7204H330.925L313.071 42.8864L304.865 50.4356L317.099 65.7204Z" fill="currentColor"></path><path d="M343.559 63.6595C346.973 65.426 350.923 66.3093 355.41 66.3093C358.97 66.3093 362.116 65.7695 364.847 64.6899C367.578 63.5613 369.846 61.9665 371.651 59.9056L365.579 53.281C364.262 54.5568 362.799 55.5137 361.189 56.1516C359.629 56.7896 357.8 57.1085 355.703 57.1085C353.362 57.1085 351.313 56.6914 349.558 55.8572C347.851 54.9739 346.509 53.7226 345.534 52.1033C345.029 51.1947 344.662 50.2132 344.432 49.159C344.24 48.2776 344.144 47.3452 344.144 46.362V44.5955C344.144 43.8469 344.196 43.1354 344.301 42.4609C344.49 41.2342 344.853 40.1301 345.388 39.1486C346.217 37.5784 347.363 36.3761 348.826 35.5419C350.338 34.6586 352.069 34.217 354.02 34.217C355.971 34.217 357.678 34.6586 359.141 35.5419C360.604 36.3761 361.75 37.5538 362.579 39.075C363.13 40.0847 363.497 41.2134 363.682 42.4609H344.301C344.196 43.1354 344.144 43.8469 344.144 44.5955V46.362C344.144 47.3452 344.24 48.2776 344.432 49.159H374.211C374.26 48.6683 374.309 48.1531 374.357 47.6133C374.406 47.0245 374.43 46.5092 374.43 46.0676C374.43 41.7984 373.528 38.1427 371.724 35.1003C369.919 32.0088 367.456 29.6534 364.335 28.0341C361.262 26.3657 357.8 25.5315 353.947 25.5315C349.948 25.5315 346.363 26.4148 343.193 28.1813C340.023 29.8988 337.511 32.3032 335.658 35.3947C333.854 38.4371 332.951 41.9457 332.951 45.9204C332.951 49.846 333.878 53.3546 335.731 56.4461C337.585 59.4885 340.194 61.8929 343.559 63.6595Z" fill="currentColor"></path><path fill-rule="evenodd" clip-rule="evenodd" d="M390.368 63.8067C393.343 65.4751 396.684 66.3093 400.39 66.3093C403.853 66.3093 406.804 65.5732 409.242 64.1011C410.521 63.3439 411.646 62.3856 412.616 61.226L412.168 30.2498C411.263 29.2526 410.238 28.4159 409.096 27.7397C406.609 26.2676 403.707 25.5315 400.39 25.5315C396.684 25.5315 393.343 26.3657 390.368 28.0341C387.393 29.7025 385.028 32.0579 383.272 35.1003C381.565 38.1427 380.712 41.7494 380.712 45.9204C380.712 50.0423 381.565 53.6245 383.272 56.6669C385.028 59.7093 387.393 62.0892 390.368 63.8067ZM407.413 55.5628C405.901 56.4461 404.219 56.8877 402.366 56.8877C400.463 56.8877 398.756 56.4461 397.245 55.5628C395.733 54.6795 394.513 53.4282 393.587 51.8089C392.709 50.1405 392.27 48.1776 392.27 45.9204C392.27 43.6141 392.709 41.6512 393.587 40.0319C394.513 38.4126 395.733 37.1613 397.245 36.278C398.756 35.3947 400.463 34.9531 402.366 34.9531C404.219 34.9531 405.901 35.3947 407.413 36.278C408.925 37.1613 410.12 38.4126 410.998 40.0319C411.925 41.6512 412.388 43.6141 412.388 45.9204C412.388 48.1776 411.925 50.1405 410.998 51.8089C410.12 53.4282 408.925 54.6795 407.413 55.5628Z" fill="currentColor"></path><path d="M423.581 3.31228H412.168V30.2498L412.616 61.226L412.68 65.7204H423.581V3.31228Z" fill="currentColor"></path></svg>