<svg width="24" height="24" viewBox="0 0 24 24" fill="none" xmlns="http://www.w3.org/2000/svg">
    <path
        d="M18 6C18 6.27614 17.7761 6.5 17.5 6.5C17.2239 6.5 17 6.27614 17 6M18 6C18 5.72386 17.7761 5.5 17.5 5.5C17.2239 5.5 17 5.72386 17 6M18 6H17M16 12C16 14.2091 14.2091 16 12 16C9.79086 16 8 14.2091 8 12C8 9.79086 9.79086 8 12 8C14.2091 8 16 9.79086 16 12ZM10 22H14C16.8003 22 18.2004 22 19.27 21.455C20.2108 20.9757 20.9757 20.2108 21.455 19.27C22 18.2004 22 16.8003 22 14V10C22 7.19974 22 5.79961 21.455 4.73005C20.9757 3.78924 20.2108 3.02433 19.27 2.54497C18.2004 2 16.8003 2 14 2H10C7.19974 2 5.79961 2 4.73005 2.54497C3.78924 3.02433 3.02433 3.78924 2.54497 4.73005C2 5.79961 2 7.19974 2 10V14C2 16.8003 2 18.2004 2.54497 19.27C3.02433 20.2108 3.78924 20.9757 4.73005 21.455C5.79961 22 7.19974 22 10 22Z"
        stroke="#3C3C3C" stroke-width="1.5" stroke-linecap="round" stroke-linejoin="round" />
</svg>