<svg width="20" height="20" viewBox="0 0 20 20" fill="none" xmlns="http://www.w3.org/2000/svg">
    <path
        d="M12.0832 7.08342H12.0915M13.5165 16.6334L8.7925 11.8921C8.13175 11.2289 7.80136 10.8974 7.42009 10.7731C7.08473 10.6639 6.72335 10.6638 6.38795 10.7729C6.00663 10.897 5.67612 11.2285 5.0151 11.8914L3.58599 13.3248M3.58599 13.3248L2.0514 10.6668C1.91117 10.4239 1.84106 10.3024 1.81362 10.1734C1.78934 10.0591 1.78934 9.94102 1.81362 9.82685C1.84106 9.69769 1.91117 9.57627 2.0514 9.33344L5.44826 3.44987C5.58848 3.207 5.65859 3.08557 5.75668 2.99725C5.84346 2.91911 5.94571 2.86008 6.05677 2.82399C6.1823 2.7832 6.32252 2.7832 6.60296 2.7832H13.3967C13.6772 2.7832 13.8173 2.7832 13.9429 2.82399C14.0539 2.86008 14.1562 2.91911 14.243 2.99725C14.3411 3.08557 14.4112 3.207 14.5514 3.44987L17.9482 9.33344C18.0885 9.57627 18.1586 9.69769 18.186 9.82685C18.2103 9.94102 18.2103 10.0591 18.186 10.1734C18.1586 10.3024 18.0885 10.4239 17.9482 10.6668L15.7409 14.49M3.58599 13.3248L5.44826 16.5503C5.58848 16.7932 5.65859 16.9146 5.75668 17.0029C5.84346 17.081 5.94571 17.1401 6.05677 17.1762C6.1823 17.2169 6.32252 17.2169 6.60296 17.2169H13.3967C13.6772 17.2169 13.8173 17.2169 13.9429 17.1762C14.0539 17.1401 14.1562 17.081 14.243 17.0029C14.3411 16.9146 14.4112 16.7932 14.5514 16.5503L15.7409 14.49M10.1989 13.3037L10.5059 12.9959C11.1736 12.333 11.5074 12.0015 11.8909 11.8795C12.2282 11.7723 12.591 11.7752 12.9266 11.8878C13.3082 12.0159 13.6367 12.3527 14.2937 13.0262L15.7409 14.49M12.4998 7.08342C12.4998 7.31354 12.3132 7.50009 12.0832 7.50009C11.8531 7.50009 11.6665 7.31354 11.6665 7.08342C11.6665 6.8533 11.8531 6.66675 12.0832 6.66675C12.3132 6.66675 12.4998 6.8533 12.4998 7.08342Z"
        stroke="black" stroke-width="1.5" stroke-linecap="round" stroke-linejoin="round" />
</svg>