<svg width="24" height="24" viewBox="0 0 24 24" fill="none" xmlns="http://www.w3.org/2000/svg">
    <path
        d="M7.50246 5.85122C7.48292 6.44184 7.5799 7.03052 7.78788 7.58368C7.99584 8.1368 8.3108 8.6436 8.7146 9.075C9.1184 9.5064 9.6032 9.8542 10.1414 10.0982C10.6796 10.3424 11.2606 10.478 11.8512 10.4976C12.4418 10.517 13.0306 10.42 13.5836 10.2122C14.1368 10.0042 14.6436 9.6892 15.075 9.2854C15.5064 8.8816 15.8542 8.3968 16.0982 7.8586C16.3424 7.3204 16.478 6.73942 16.4976 6.14878C16.517 5.55816 16.42 4.96948 16.2122 4.41632C16.0042 3.86318 15.6892 3.35642 15.2854 2.92496C14.8816 2.49352 14.3968 2.14582 13.8586 1.90176C13.3204 1.65768 12.7394 1.522 12.1488 1.50246C11.5582 1.48292 10.9694 1.5799 10.4164 1.78788C9.8632 1.99584 9.3564 2.31074 8.925 2.71454C8.4936 3.11836 8.1458 3.60322 7.90176 4.1414C7.65768 4.6796 7.522 5.26058 7.50246 5.85122Z"
        stroke="black" stroke-width="2" stroke-linecap="round" stroke-linejoin="round" />
    <path
        d="M21 22.5C20.2626 20.724 19.014 19.206 17.4122 18.138C15.8102 17.07 13.9266 16.5 12 16.5C10.0734 16.5 8.1898 17.07 6.5879 18.138C4.98592 19.206 3.73732 20.724 3 22.5"
        stroke="black" stroke-width="2" stroke-linecap="round" stroke-linejoin="round" />
</svg>